<svg width="32" height="32" viewBox="0 0 32 32" fill="none" xmlns="http://www.w3.org/2000/svg">
<path fill-rule="evenodd" clip-rule="evenodd" d="M11.8775 6.06C12.9442 6.0125 13.2833 6 16 6C18.7167 6 19.0558 6.01 20.1225 6.06C21.1867 6.10917 21.9125 6.2775 22.55 6.525C23.2092 6.77917 23.7658 7.1225 24.3217 7.67833C24.8767 8.23417 25.22 8.7925 25.475 9.45C25.7217 10.0867 25.89 10.8133 25.94 11.8775C25.9875 12.9442 26 13.2833 26 16C26 18.7167 25.99 19.0558 25.94 20.1225C25.8908 21.1867 25.7217 21.9125 25.475 22.55C25.2208 23.2092 24.8767 23.7658 24.3217 24.3217C23.7658 24.8767 23.2067 25.22 22.55 25.475C21.9125 25.7217 21.1867 25.89 20.1225 25.94C19.0558 25.9875 18.7167 26 16 26C13.2833 26 12.9442 25.99 11.8775 25.94C10.8133 25.8908 10.0883 25.7217 9.45 25.475C8.79167 25.2208 8.23417 24.8767 7.67833 24.3217C7.1225 23.7658 6.78 23.2067 6.525 22.55C6.2775 21.9125 6.11 21.1867 6.06 20.1225C6.0125 19.0558 6 18.7167 6 16C6 13.2833 6.01 12.9442 6.06 11.8775C6.10917 10.8125 6.2775 10.0875 6.525 9.45C6.77917 8.79167 7.1225 8.23417 7.67833 7.67833C8.23417 7.1225 8.7925 6.78 9.45 6.525C10.0875 6.2775 10.8125 6.11 11.8775 6.06ZM20.0417 7.85917C18.9875 7.81333 18.6692 7.8 16 7.8L15.9625 7.775C13.3292 7.775 12.9859 7.78712 11.9615 7.8233L11.9133 7.825C10.9383 7.875 10.4125 8.0375 10.0625 8.17583C9.58833 8.35 9.2625 8.575 8.91333 8.92417C8.5625 9.275 8.33833 9.6 8.16333 10.075C8.02583 10.425 7.86417 10.9617 7.81333 11.9367L7.81119 11.9974C7.77532 13.0126 7.7625 13.3756 7.7625 15.9875C7.7625 18.602 7.77536 18.9617 7.81133 19.9681L7.81333 20.0242C7.86417 20.9992 8.02583 21.5367 8.16333 21.8867C8.33833 22.35 8.5625 22.6875 8.91333 23.0367C9.2625 23.3867 9.58833 23.5992 10.0625 23.7858C10.4125 23.9233 10.95 24.0858 11.9258 24.1367C12.9867 24.1858 13.2992 24.1983 15.975 24.1983C18.65 24.1983 18.9625 24.1875 20.0242 24.14C20.9992 24.0958 21.5367 23.9325 21.8867 23.7958C22.35 23.615 22.6875 23.3983 23.0367 23.0492C23.3867 22.6975 23.5992 22.3658 23.7858 21.8975C23.9233 21.5458 24.0858 21.0167 24.1367 20.0417C24.1858 18.9875 24.1983 18.67 24.1983 16C24.1983 13.33 24.1875 13.0133 24.14 11.9583C24.0958 10.9833 23.9325 10.4542 23.7958 10.1025C23.615 9.63417 23.3983 9.30167 23.0492 8.95167C22.6975 8.6025 22.3658 8.38583 21.8975 8.205C21.5458 8.06667 21.0167 7.905 20.0417 7.85917ZM10.865 16C10.865 13.165 13.1625 10.865 16 10.865C18.835 10.865 21.135 13.1625 21.135 16C21.135 18.835 18.8375 21.135 16 21.135C13.165 21.135 10.865 18.8375 10.865 16ZM12.6667 16C12.6667 17.8417 14.1583 19.3333 16 19.3333C17.8417 19.3333 19.3333 17.8417 19.3333 16C19.3333 14.1583 17.8417 12.6667 16 12.6667C14.1583 12.6667 12.6667 14.1583 12.6667 16Z" fill="white"/>
<path d="M22.5383 10.6625C22.5383 11.325 22 11.8625 21.3383 11.8625C20.6758 11.8625 20.1383 11.3242 20.1383 10.6625C20.1383 10.0008 20.6767 9.46333 21.3383 9.46333C21.9992 9.4625 22.5383 10.0008 22.5383 10.6625Z" fill="white"/>
</svg>
