<svg width="32" height="32" viewBox="0 0 32 32" fill="none" xmlns="http://www.w3.org/2000/svg">
<path d="M7.3749 14.888C12.7436 12.63 16.3236 11.1414 18.1148 10.4222C23.2292 8.36873 24.2919 8.01202 24.9846 8.00011C25.1369 7.99765 25.4776 8.0341 25.6982 8.20693C25.8845 8.35287 25.9358 8.55001 25.9603 8.68837C25.9848 8.82673 26.0154 9.14193 25.9911 9.38822C25.714 12.1993 24.5147 19.021 23.9046 22.1694C23.6465 23.5017 23.1382 23.9484 22.6461 23.9921C21.5766 24.0871 20.7645 23.3098 19.7287 22.6543C18.1078 21.6287 17.1921 20.9902 15.6188 19.9894C13.8005 18.8327 14.9792 18.197 16.0154 17.158C16.2866 16.8861 20.9987 12.7488 21.0899 12.3734C21.1013 12.3265 21.1119 12.1515 21.0042 12.0591C20.8965 11.9667 20.7376 11.9983 20.6229 12.0235C20.4604 12.0591 17.871 13.7112 12.8549 16.9798C12.1199 17.467 11.4542 17.7044 10.8577 17.692C10.2001 17.6782 8.93528 17.3331 7.99498 17.038C6.84166 16.6761 5.92503 16.4848 6.00485 15.8701C6.04642 15.55 6.5031 15.2226 7.3749 14.888Z" fill="white"/>
</svg>
