<svg width="32" height="32" viewBox="0 0 32 32" fill="none" xmlns="http://www.w3.org/2000/svg">
<path d="M24.1398 23.9601L17.5921 14.4462L16.8518 13.3703L12.1664 6.56429L11.7782 6H6.02344L7.42675 8.03999L13.6553 17.09L14.3956 18.1643L19.4001 25.4358L19.7884 25.9985H25.5447L24.1398 23.9601ZM20.4711 24.6971L15.2725 17.1426L14.5321 16.0667L8.49938 7.30296H11.0938L15.9733 14.3919L16.7136 15.4678L23.0672 24.6988H20.4711V24.6971Z" fill="white"/>
<path d="M14.5317 16.0681L15.272 17.1441L7.65995 25.9999H6L14.5317 16.0681Z" fill="white"/>
<path d="M24.8501 6.00146L17.5917 14.446L16.7132 15.466L15.9729 14.3917L21.7687 7.64662L23.1901 6.00146H24.8501Z" fill="white"/>
</svg>
